<svg xmlns="http://www.w3.org/2000/svg" xmlns:xlink="http://www.w3.org/1999/xlink" width="500" zoomAndPan="magnify" viewBox="0 0 375 374.999991" height="500" preserveAspectRatio="xMidYMid meet" version="1.0"><defs><g/><clipPath id="b54e2e2e52"><path d="M 56.917969 23.421875 L 351.667969 23.421875 L 351.667969 363.921875 L 56.917969 363.921875 Z M 56.917969 23.421875 " clip-rule="nonzero"/></clipPath><clipPath id="607d3194d0"><path d="M 67.464844 36 L 337.464844 36 L 337.464844 347.972656 L 67.464844 347.972656 Z M 67.464844 36 " clip-rule="nonzero"/></clipPath><clipPath id="f4a4a96f93"><path d="M 157.503906 152.144531 L 243.753906 152.144531 L 243.753906 234.644531 L 157.503906 234.644531 Z M 157.503906 152.144531 " clip-rule="nonzero"/></clipPath><clipPath id="19abc72e51"><path d="M 160.109375 157.164062 L 241.109375 157.164062 L 241.109375 235.164062 L 160.109375 235.164062 Z M 160.109375 157.164062 " clip-rule="nonzero"/></clipPath></defs><g clip-path="url(#b54e2e2e52)"><path fill="#000000" d="M 210.414062 27.066406 L 277.945312 66.074219 L 345.476562 105.078125 L 351.667969 108.632812 L 351.667969 122.691406 L 345.476562 126.242188 L 271.824219 168.800781 L 204.292969 129.796875 L 149.152344 161.695312 L 149.152344 225.570312 L 204.292969 257.472656 L 271.824219 218.464844 L 296.375 232.675781 C 314.808594 243.335938 333.238281 253.992188 351.667969 264.652344 L 351.667969 278.710938 L 345.476562 282.265625 L 277.945312 321.269531 L 210.414062 360.277344 L 204.292969 363.828125 L 198.175781 360.277344 L 179.746094 349.617188 L 213.511719 330.113281 C 247.277344 310.613281 281.042969 291.109375 314.730469 271.605469 L 271.75 246.8125 L 161.3125 310.761719 L 152.097656 316.054688 L 136.765625 324.898438 L 130.644531 321.347656 L 63.113281 282.417969 L 56.917969 278.789062 L 56.917969 108.707031 L 63.113281 105.152344 L 130.644531 66.148438 L 136.765625 62.597656 L 142.882812 66.148438 L 271.75 140.605469 L 314.730469 115.8125 L 265.632812 87.464844 L 229.148438 66.222656 L 204.292969 51.863281 L 179.746094 37.652344 L 198.175781 27.066406 L 204.292969 23.515625 Z M 179.746094 271.757812 L 124.449219 239.78125 L 124.449219 147.710938 L 179.746094 115.738281 L 136.765625 90.941406 L 81.621094 122.84375 L 81.621094 264.652344 L 136.765625 296.550781 Z M 179.746094 271.757812 " fill-opacity="1" fill-rule="evenodd"/></g><g clip-path="url(#607d3194d0)"><path fill="#ffffff" d="M 208.066406 39.3125 L 269.929688 75.054688 L 331.789062 110.792969 L 337.464844 114.050781 L 337.464844 126.933594 L 331.789062 130.1875 L 264.324219 169.183594 L 202.464844 133.441406 L 151.949219 162.671875 L 151.949219 221.199219 L 202.464844 250.429688 L 264.324219 214.691406 L 286.8125 227.710938 C 303.695312 237.476562 320.578125 247.242188 337.464844 257.011719 L 337.464844 269.894531 L 331.789062 273.148438 L 269.929688 308.890625 L 208.066406 344.628906 L 202.464844 347.882812 L 196.859375 344.628906 L 179.976562 334.863281 L 210.90625 316.992188 C 241.835938 299.121094 272.765625 281.253906 303.625 263.382812 L 264.253906 240.664062 L 163.089844 299.261719 L 154.648438 304.109375 L 140.601562 312.214844 L 134.996094 308.957031 L 73.136719 273.289062 L 67.464844 269.960938 L 67.464844 114.117188 L 73.136719 110.863281 L 134.996094 75.121094 L 140.601562 71.867188 L 146.207031 75.121094 L 264.253906 143.347656 L 303.625 120.628906 L 258.648438 94.65625 L 225.230469 75.191406 L 202.464844 62.03125 L 179.976562 49.011719 L 196.859375 39.3125 L 202.464844 36.058594 Z M 179.976562 263.519531 L 129.324219 234.222656 L 129.324219 149.859375 L 179.976562 120.558594 L 140.601562 97.839844 L 90.089844 127.070312 L 90.089844 257.011719 L 140.601562 286.238281 Z M 179.976562 263.519531 " fill-opacity="1" fill-rule="evenodd"/></g><g clip-path="url(#f4a4a96f93)"><path fill="#000000" d="M 186.414062 216.976562 L 186.414062 234.644531 L 179.066406 230.429688 L 176.617188 229.015625 L 176.617188 216.957031 L 186.414062 216.957031 Z M 243.730469 195.671875 L 243.730469 168.699219 L 241.28125 167.304688 L 233.933594 163.089844 L 233.933594 179.054688 L 186.414062 179.054688 L 186.414062 152.144531 L 179.066406 156.355469 L 176.617188 157.75 L 176.617188 188.761719 L 233.933594 188.761719 L 233.933594 223.675781 L 241.28125 219.464844 L 243.730469 218.066406 Z M 167.320312 174.289062 L 167.320312 163.089844 L 159.972656 167.304688 L 157.523438 168.699219 L 157.523438 218.066406 L 159.972656 219.464844 L 167.320312 223.675781 L 167.320312 207.710938 L 214.839844 207.710938 L 214.839844 234.644531 L 222.1875 230.429688 L 224.636719 229.035156 L 224.636719 198.023438 L 167.320312 198.023438 Z M 214.839844 152.144531 L 222.1875 156.355469 L 224.636719 157.75 L 224.636719 169.808594 L 214.839844 169.808594 Z M 214.839844 152.144531 " fill-opacity="1" fill-rule="evenodd"/></g><g clip-path="url(#19abc72e51)"><path fill="#ffffff" d="M 187.257812 218.460938 L 187.257812 235.164062 L 180.355469 231.183594 L 178.054688 229.84375 L 178.054688 218.445312 L 187.257812 218.445312 Z M 241.09375 198.320312 L 241.09375 172.820312 L 238.792969 171.5 L 231.890625 167.515625 L 231.890625 182.609375 L 187.257812 182.609375 L 187.257812 157.164062 L 180.355469 161.148438 L 178.054688 162.46875 L 178.054688 191.785156 L 231.890625 191.785156 L 231.890625 224.796875 L 238.792969 220.8125 L 241.09375 219.492188 Z M 169.324219 178.105469 L 169.324219 167.515625 L 162.425781 171.5 L 160.125 172.820312 L 160.125 219.492188 L 162.425781 220.8125 L 169.324219 224.796875 L 169.324219 209.703125 L 213.957031 209.703125 L 213.957031 235.164062 L 220.859375 231.183594 L 223.160156 229.863281 L 223.160156 200.546875 L 169.324219 200.546875 Z M 213.957031 157.164062 L 220.859375 161.148438 L 223.160156 162.46875 L 223.160156 173.871094 L 213.957031 173.871094 Z M 213.957031 157.164062 " fill-opacity="1" fill-rule="evenodd"/></g><g fill="#a6a6a6" fill-opacity="1"><g transform="translate(281.031945, 158.789651)"><g><path d="M 0.578125 -0.328125 L 0.21875 -0.125 L -0.859375 -3.59375 L -0.421875 -3.84375 L 1.953125 -2.015625 L 2 -2.046875 L 1.140625 -4.734375 L 1.5 -4.9375 L 2.59375 -1.46875 L 2.21875 -1.25 L -0.28125 -3.25 L -0.328125 -3.203125 Z M 0.578125 -0.328125 "/></g></g><g transform="translate(284.343717, 156.913758)"><g><path d="M 1.015625 -0.515625 C 0.867188 -0.441406 0.722656 -0.40625 0.578125 -0.40625 C 0.429688 -0.40625 0.285156 -0.445312 0.140625 -0.53125 C -0.00390625 -0.625 -0.128906 -0.765625 -0.234375 -0.953125 C -0.304688 -1.078125 -0.367188 -1.21875 -0.421875 -1.375 C -0.566406 -1.8125 -0.585938 -2.1875 -0.484375 -2.5 C -0.390625 -2.8125 -0.175781 -3.0625 0.15625 -3.25 C 0.300781 -3.332031 0.453125 -3.367188 0.609375 -3.359375 C 0.773438 -3.359375 0.921875 -3.3125 1.046875 -3.21875 L 1.09375 -3.25 L 0.96875 -3.640625 L 1.3125 -3.84375 L 2.140625 -1.203125 L 1.796875 -1.015625 L 1.671875 -1.40625 L 1.625 -1.390625 C 1.613281 -1.210938 1.554688 -1.050781 1.453125 -0.90625 C 1.359375 -0.757812 1.210938 -0.628906 1.015625 -0.515625 Z M 0.96875 -0.90625 C 1.1875 -1.03125 1.332031 -1.210938 1.40625 -1.453125 C 1.488281 -1.691406 1.484375 -1.984375 1.390625 -2.328125 C 1.347656 -2.441406 1.300781 -2.539062 1.25 -2.625 C 1.132812 -2.820312 0.992188 -2.945312 0.828125 -3 C 0.671875 -3.050781 0.507812 -3.03125 0.34375 -2.9375 C -0.125 -2.675781 -0.25 -2.207031 -0.03125 -1.53125 C -0.0078125 -1.414062 0.0234375 -1.3125 0.078125 -1.21875 C 0.148438 -1.082031 0.234375 -0.976562 0.328125 -0.90625 C 0.429688 -0.84375 0.535156 -0.8125 0.640625 -0.8125 C 0.753906 -0.8125 0.863281 -0.84375 0.96875 -0.90625 Z M 0.96875 -0.90625 "/></g></g><g transform="translate(287.141411, 155.329057)"><g><path d="M -0.125 -2.65625 L 0.375 -1.09375 C 0.382812 -1.039062 0.40625 -0.992188 0.4375 -0.953125 C 0.488281 -0.859375 0.550781 -0.800781 0.625 -0.78125 C 0.695312 -0.769531 0.773438 -0.789062 0.859375 -0.84375 C 0.984375 -0.914062 1.082031 -1.007812 1.15625 -1.125 L 1.203125 -1.15625 L 1.40625 -0.953125 C 1.332031 -0.765625 1.179688 -0.609375 0.953125 -0.484375 C 0.785156 -0.390625 0.628906 -0.359375 0.484375 -0.390625 C 0.335938 -0.429688 0.21875 -0.53125 0.125 -0.6875 C 0.0820312 -0.757812 0.046875 -0.835938 0.015625 -0.921875 L -0.46875 -2.46875 L -0.875 -2.234375 L -0.96875 -2.5625 L -0.5625 -2.796875 L -0.734375 -3.34375 L -0.421875 -3.578125 L -0.21875 -2.984375 L 0.53125 -3.421875 L 0.640625 -3.09375 Z M -0.125 -2.65625 "/></g></g><g transform="translate(288.925817, 154.318313)"><g><path d="M 1.015625 -0.515625 C 0.867188 -0.441406 0.722656 -0.40625 0.578125 -0.40625 C 0.429688 -0.40625 0.285156 -0.445312 0.140625 -0.53125 C -0.00390625 -0.625 -0.128906 -0.765625 -0.234375 -0.953125 C -0.304688 -1.078125 -0.367188 -1.21875 -0.421875 -1.375 C -0.566406 -1.8125 -0.585938 -2.1875 -0.484375 -2.5 C -0.390625 -2.8125 -0.175781 -3.0625 0.15625 -3.25 C 0.300781 -3.332031 0.453125 -3.367188 0.609375 -3.359375 C 0.773438 -3.359375 0.921875 -3.3125 1.046875 -3.21875 L 1.09375 -3.25 L 0.96875 -3.640625 L 1.3125 -3.84375 L 2.140625 -1.203125 L 1.796875 -1.015625 L 1.671875 -1.40625 L 1.625 -1.390625 C 1.613281 -1.210938 1.554688 -1.050781 1.453125 -0.90625 C 1.359375 -0.757812 1.210938 -0.628906 1.015625 -0.515625 Z M 0.96875 -0.90625 C 1.1875 -1.03125 1.332031 -1.210938 1.40625 -1.453125 C 1.488281 -1.691406 1.484375 -1.984375 1.390625 -2.328125 C 1.347656 -2.441406 1.300781 -2.539062 1.25 -2.625 C 1.132812 -2.820312 0.992188 -2.945312 0.828125 -3 C 0.671875 -3.050781 0.507812 -3.03125 0.34375 -2.9375 C -0.125 -2.675781 -0.25 -2.207031 -0.03125 -1.53125 C -0.0078125 -1.414062 0.0234375 -1.3125 0.078125 -1.21875 C 0.148438 -1.082031 0.234375 -0.976562 0.328125 -0.90625 C 0.429688 -0.84375 0.535156 -0.8125 0.640625 -0.8125 C 0.753906 -0.8125 0.863281 -0.84375 0.96875 -0.90625 Z M 0.96875 -0.90625 "/></g></g><g transform="translate(291.72351, 152.733611)"><g><path d="M 0.828125 -0.421875 C 0.691406 -0.335938 0.554688 -0.28125 0.421875 -0.25 C 0.296875 -0.226562 0.175781 -0.226562 0.0625 -0.25 C -0.0507812 -0.269531 -0.148438 -0.320312 -0.234375 -0.40625 L -0.09375 -0.75 L -0.0625 -0.765625 C 0.0507812 -0.691406 0.171875 -0.648438 0.296875 -0.640625 C 0.429688 -0.640625 0.570312 -0.679688 0.71875 -0.765625 C 0.882812 -0.859375 1.003906 -0.96875 1.078125 -1.09375 C 1.148438 -1.226562 1.160156 -1.363281 1.109375 -1.5 C 1.109375 -1.519531 1.097656 -1.546875 1.078125 -1.578125 C 1.003906 -1.710938 0.851562 -1.753906 0.625 -1.703125 L 0.21875 -1.59375 C 0.0507812 -1.550781 -0.101562 -1.550781 -0.25 -1.59375 C -0.394531 -1.632812 -0.503906 -1.722656 -0.578125 -1.859375 C -0.609375 -1.910156 -0.632812 -1.96875 -0.65625 -2.03125 C -0.675781 -2.144531 -0.671875 -2.269531 -0.640625 -2.40625 C -0.617188 -2.550781 -0.554688 -2.679688 -0.453125 -2.796875 C -0.347656 -2.921875 -0.210938 -3.035156 -0.046875 -3.140625 C 0.148438 -3.242188 0.320312 -3.296875 0.46875 -3.296875 C 0.613281 -3.304688 0.753906 -3.273438 0.890625 -3.203125 L 0.765625 -2.875 L 0.71875 -2.84375 C 0.613281 -2.90625 0.507812 -2.929688 0.40625 -2.921875 C 0.300781 -2.910156 0.191406 -2.875 0.078125 -2.8125 C -0.078125 -2.71875 -0.1875 -2.617188 -0.25 -2.515625 C -0.3125 -2.410156 -0.328125 -2.300781 -0.296875 -2.1875 C -0.285156 -2.15625 -0.273438 -2.128906 -0.265625 -2.109375 C -0.222656 -2.035156 -0.160156 -1.988281 -0.078125 -1.96875 C -0.00390625 -1.945312 0.09375 -1.953125 0.21875 -1.984375 L 0.59375 -2.078125 C 0.789062 -2.128906 0.957031 -2.128906 1.09375 -2.078125 C 1.226562 -2.035156 1.332031 -1.953125 1.40625 -1.828125 C 1.425781 -1.773438 1.453125 -1.710938 1.484375 -1.640625 C 1.554688 -1.421875 1.539062 -1.203125 1.4375 -0.984375 C 1.332031 -0.773438 1.128906 -0.585938 0.828125 -0.421875 Z M 0.828125 -0.421875 "/></g></g><g transform="translate(293.890289, 151.50628)"><g><path d="M 0.15625 -0.09375 L -1 -3.78125 L -0.65625 -3.96875 L -0.203125 -2.546875 L -0.140625 -2.546875 C -0.128906 -2.722656 -0.0820312 -2.878906 0 -3.015625 C 0.09375 -3.160156 0.21875 -3.28125 0.375 -3.375 C 0.601562 -3.5 0.804688 -3.535156 0.984375 -3.484375 C 1.171875 -3.441406 1.316406 -3.320312 1.421875 -3.125 C 1.472656 -3.039062 1.507812 -2.957031 1.53125 -2.875 L 2.078125 -1.171875 L 1.734375 -0.984375 L 1.203125 -2.65625 C 1.179688 -2.738281 1.148438 -2.8125 1.109375 -2.875 C 1.035156 -3 0.941406 -3.070312 0.828125 -3.09375 C 0.722656 -3.113281 0.597656 -3.082031 0.453125 -3 C 0.253906 -2.882812 0.113281 -2.710938 0.03125 -2.484375 C -0.0390625 -2.253906 -0.0195312 -1.972656 0.09375 -1.640625 L 0.5 -0.28125 Z M 0.15625 -0.09375 "/></g></g><g transform="translate(296.58814, 149.978131)"><g><path d="M 1.015625 -0.515625 C 0.867188 -0.441406 0.722656 -0.40625 0.578125 -0.40625 C 0.429688 -0.40625 0.285156 -0.445312 0.140625 -0.53125 C -0.00390625 -0.625 -0.128906 -0.765625 -0.234375 -0.953125 C -0.304688 -1.078125 -0.367188 -1.21875 -0.421875 -1.375 C -0.566406 -1.8125 -0.585938 -2.1875 -0.484375 -2.5 C -0.390625 -2.8125 -0.175781 -3.0625 0.15625 -3.25 C 0.300781 -3.332031 0.453125 -3.367188 0.609375 -3.359375 C 0.773438 -3.359375 0.921875 -3.3125 1.046875 -3.21875 L 1.09375 -3.25 L 0.96875 -3.640625 L 1.3125 -3.84375 L 2.140625 -1.203125 L 1.796875 -1.015625 L 1.671875 -1.40625 L 1.625 -1.390625 C 1.613281 -1.210938 1.554688 -1.050781 1.453125 -0.90625 C 1.359375 -0.757812 1.210938 -0.628906 1.015625 -0.515625 Z M 0.96875 -0.90625 C 1.1875 -1.03125 1.332031 -1.210938 1.40625 -1.453125 C 1.488281 -1.691406 1.484375 -1.984375 1.390625 -2.328125 C 1.347656 -2.441406 1.300781 -2.539062 1.25 -2.625 C 1.132812 -2.820312 0.992188 -2.945312 0.828125 -3 C 0.671875 -3.050781 0.507812 -3.03125 0.34375 -2.9375 C -0.125 -2.675781 -0.25 -2.207031 -0.03125 -1.53125 C -0.0078125 -1.414062 0.0234375 -1.3125 0.078125 -1.21875 C 0.148438 -1.082031 0.234375 -0.976562 0.328125 -0.90625 C 0.429688 -0.84375 0.535156 -0.8125 0.640625 -0.8125 C 0.753906 -0.8125 0.863281 -0.84375 0.96875 -0.90625 Z M 0.96875 -0.90625 "/></g></g></g></svg>